Contains All 22 Episodes of Season 1 Plus    Clash Of the Red Rangers Movie



Format                                   : MPEG-4
Format profile                           : Base Media / Version 2
Codec ID                                 : mp42
File size                                : 251 MiB
Duration                                 : 23mn 47s
Overall bit rate mode                    : Variable
Overall bit rate                         : 1 477 Kbps
Encoded date                             : UTC 2013-02-10 01:14:58
Tagged date                              : UTC 2013-02-10 01:15:11

Video
ID                                       : 1
Format                                   : AVC
Format/Info                              : Advanced Video Codec
Format profile                           : High@L3.1
Format settings, CABAC                   : Yes
Format settings, ReFrames                : 5 frames
Codec ID                                 : avc1
Codec ID/Info                            : Advanced Video Coding
Duration                                 : 23mn 47s
Bit rate mode                            : Variable
Bit rate                                 : 1 340 Kbps
Width                                    : 1 280 pixels
Height                                   : 720 pixels
Display aspect ratio                     : 16:9
Frame rate mode                          : Variable
Frame rate                               : 23.976 fps
Minimum frame rate                       : 0.596 fps
Maximum frame rate                       : 1 000.000 fps
Color space                              : YUV
Chroma subsampling                       : 4:2:0
Bit depth                                : 8 bits
Scan type                                : Progressive
Bits/(Pixel*Frame)                       : 0.061
Stream size                              : 228 MiB (91%)
Encoded date                             : UTC 2013-02-10 01:14:58
Tagged date                              : UTC 2013-02-10 01:15:11

Audio
ID                                       : 2
Format                                   : AAC
Format/Info                              : Advanced Audio Codec
Format profile                           : LC
Codec ID                                 : 40
Duration                                 : 23mn 47s
Bit rate mode                            : Variable
Bit rate                                 : 128 Kbps
Channel(s)                               : 2 channels
Channel positions                        : Front: L R
Sampling rate                            : 48.0 KHz
Compression mode                         : Lossy
Stream size                              : 21.8 MiB (9%)
Encoded date                             : UTC 2013-02-10 01:14:58
Tagged date                              : UTC 2013-02-10 01:15:11


FIXED TORRENT

